<?xml version="1.0" encoding="UTF-8" standalone="no"?>
<!-- Created with Inkscape (http://www.inkscape.org/) --><svg viewBox="-170 330 520 520" id="svg45" xmlns="http://www.w3.org/2000/svg" xmlns:cc="http://web.resource.org/cc/" xmlns:dc="http://purl.org/dc/elements/1.1/" xmlns:inkscape="http://www.inkscape.org/namespaces/inkscape" xmlns:rdf="http://www.w3.org/1999/02/22-rdf-syntax-ns#" xmlns:sodipodi="http://inkscape.sourceforge.net/DTD/sodipodi-0.dtd" xmlns:svg="http://www.w3.org/2000/svg">
  <defs id="defs3"/>
  <sodipodi:namedview bordercolor="#666666" borderopacity="1.0" id="base" inkscape:current-layer="layer1" inkscape:cx="0" inkscape:cy="0" inkscape:document-units="px" inkscape:pageopacity="0.0" inkscape:pageshadow="2" inkscape:window-height="600" inkscape:window-width="900" inkscape:window-x="22" inkscape:window-y="29" inkscape:zoom="0.35000000" pagecolor="#ffffff"/>
  <g transform="rotate(30)" id="layer1" inkscape:groupmode="layer" inkscape:label="Layer 1">
    <path d="M 614.77414,560.12174 C 587.68041,570.68533 516.07017,565.13404 470.71715,548.95468 C 418.22568,530.22820 414.64302,532.12672 417.35792,577.22605 C 418.19747,591.17179 416.29918,597.61098 411.33095,597.66740 C 405.80535,597.73092 405.65871,598.75516 410.71387,601.96694 C 419.30663,607.42599 402.62734,646.44468 391.70092,646.44468 C 385.84628,646.44468 386.03425,648.17791 392.60170,654.74536 C 397.16677,659.31019 399.61761,666.39242 398.04814,670.48229 C 396.47814,674.57293 397.80373,679.53260 400.99335,681.50396 C 411.70410,688.12355 407.10525,696.13577 394.83083,692.23940 C 383.41004,688.61488 383.30143,688.87593 392.42857,698.00308 C 398.18293,703.75743 400.50530,711.06490 398.26281,716.36322 C 396.21433,721.20343 393.34624,730.65990 391.88890,737.37855 C 390.43228,744.09667 386.03473,749.59350 382.11695,749.59350 C 371.70527,749.59350 356.87064,733.04575 359.99174,724.91287 C 361.46772,721.06636 358.82891,716.44258 354.12753,714.63875 C 347.25140,711.99969 346.17350,705.60209 348.61705,681.92677 C 350.66553,662.08232 349.61280,651.81476 345.38586,650.40552 C 341.11809,648.98344 338.85695,625.05844 338.30087,575.44771 C 337.85188,535.37028 337.19931,499.47270 336.85033,495.67633 C 336.50160,491.88025 329.49825,485.86536 321.28725,482.31088 C 313.07601,478.75668 281.92791,459.93270 252.06918,440.48105 C 222.21013,421.02891 191.52114,401.39208 183.87127,396.84290 C 133.49682,366.88888 124.46817,360.26925 119.69471,349.79286 C 116.76210,343.35668 115.73006,332.86188 117.40135,326.47157 C 120.67613,313.94842 150.02036,298.99561 171.31939,298.99561 C 193.98911,298.99561 283.70453,345.54047 306.67461,369.21854 C 337.21744,400.70298 341.56028,398.58394 342.10451,351.92750 C 342.83096,289.58376 347.00900,244.11452 353.04962,232.82805 C 361.75423,216.56377 388.39869,202.84682 406.20899,205.46070 C 414.94310,206.74247 428.34657,214.32303 435.99472,222.30576 C 449.71591,236.62817 449.79227,237.17845 441.75712,263.83627 C 436.47140,281.37248 433.19462,318.47343 432.41831,369.57128 L 431.22198,448.29020 L 480.86221,472.72014 C 542.53674,503.07276 567.98968,513.96288 587.95883,518.54208 C 607.02397,522.91393 620.57660,535.57411 615.31209,544.09302 C 612.97535,547.87326 613.77435,548.94232 617.30486,546.76033 C 620.54614,544.75720 624.73530,545.60583 626.61370,548.64625 C 628.49281,551.68647 623.16479,556.85048 614.77414,560.12174 z " id="path12" style="fill:#000000"/>
  </g>
</svg>
